<svg width="28" height="27" viewBox="0 0 28 27" fill="none" xmlns="http://www.w3.org/2000/svg">
<path d="M12.2498 17.1562C12.0247 17.1396 11.8153 17.0387 11.6665 16.875L8.16648 13.5C8.0885 13.3425 8.06306 13.1656 8.09366 12.9937C8.12425 12.8217 8.20939 12.6631 8.33734 12.5397C8.46528 12.4164 8.62975 12.3343 8.80809 12.3048C8.98643 12.2752 9.16987 12.2998 9.33315 12.375L12.2148 15.1537L22.1665 5.62498C22.3298 5.54978 22.5132 5.52525 22.6915 5.55475C22.8699 5.58426 23.0343 5.66635 23.1623 5.78973C23.2902 5.91311 23.3754 6.0717 23.406 6.24367C23.4366 6.41564 23.4111 6.59253 23.3331 6.74998L12.8331 16.875C12.6843 17.0387 12.4749 17.1396 12.2498 17.1562Z" fill="#0AC000"/>
<path d="M14.0001 23.625C12.1235 23.622 10.282 23.1342 8.6672 22.2122C7.05242 21.2902 5.72341 19.9678 4.81846 18.3825C4.13152 17.2008 3.70644 15.8945 3.57013 14.5462C3.3566 12.5685 3.75167 10.574 4.70605 8.81147C5.66042 7.04892 7.13185 5.59634 8.93679 4.63495C10.1622 3.97254 11.5169 3.56264 12.9151 3.4312C14.3083 3.28795 15.7171 3.41806 17.0568 3.8137C17.1763 3.83673 17.2896 3.88359 17.3892 3.95128C17.4889 4.01896 17.5728 4.10598 17.6355 4.20675C17.6983 4.30753 17.7385 4.41983 17.7536 4.53647C17.7687 4.65311 17.7584 4.7715 17.7233 4.88407C17.6882 4.99663 17.6291 5.10088 17.5498 5.19013C17.4704 5.27939 17.3727 5.35168 17.2627 5.40236C17.1527 5.45305 17.0329 5.48102 16.9111 5.48448C16.7893 5.48794 16.668 5.46681 16.5551 5.42245C15.422 5.09326 14.2319 4.98616 13.0551 5.10745C11.8918 5.22138 10.7645 5.56202 9.74179 6.1087C8.75611 6.63307 7.88463 7.33591 7.17513 8.1787C6.44463 9.03725 5.89914 10.0277 5.5706 11.0921C5.24205 12.1565 5.13707 13.2734 5.26179 14.3775C5.37994 15.4993 5.7332 16.5862 6.30013 17.5725C6.84391 18.5229 7.57279 19.3633 8.44679 20.0475C9.33715 20.7519 10.3643 21.2779 11.4681 21.5947C12.5719 21.9115 13.7302 22.0127 14.8751 21.8925C16.0385 21.7785 17.1657 21.4379 18.1885 20.8912C19.1741 20.3668 20.0456 19.664 20.7551 18.8212C21.4856 17.9626 22.0311 16.9722 22.3597 15.9078C22.6882 14.8434 22.7932 13.7265 22.6685 12.6225C22.6453 12.3882 22.7195 12.1547 22.8748 11.9733C23.0302 11.7918 23.2539 11.6773 23.4968 11.655C23.7397 11.6326 23.9819 11.7042 24.17 11.8539C24.3582 12.0037 24.4769 12.2195 24.5001 12.4537C24.7126 14.4325 24.3158 16.4279 23.3592 18.1906C22.4027 19.9532 20.9289 21.4051 19.1218 22.365C17.8833 23.0545 16.5077 23.4839 15.0851 23.625H14.0001Z" fill="#0AC000"/>
</svg>
