<svg width="102" height="101" viewBox="0 0 102 101" fill="none" xmlns="http://www.w3.org/2000/svg">
<g filter="url(#filter0_d_22_225)">
<path d="M14.5 33.8408C14.5001 29.1321 15.7322 24.5343 18.0337 20.6545C20.3351 16.7747 23.5977 13.7954 27.3903 12.1103C31.183 10.4251 35.3274 10.1132 39.2762 11.2159C43.2249 12.3186 46.7923 14.784 49.507 18.2863C49.6982 18.5234 49.9294 18.7123 50.1862 18.8415C50.443 18.9707 50.72 19.0373 50.9999 19.0373C51.2798 19.0373 51.5568 18.9707 51.8136 18.8415C52.0704 18.7123 52.3015 18.5234 52.4927 18.2863C55.199 14.7612 58.7671 12.2751 62.7223 11.1591C66.6775 10.043 70.8321 10.3498 74.6331 12.0387C78.4341 13.7276 81.7013 16.7184 83.9998 20.6132C86.2984 24.5079 87.5192 29.1218 87.4998 33.8408C87.4998 43.5306 82.0248 50.7662 76.5498 57.1132L56.5041 79.5944C55.824 80.4999 54.9854 81.2273 54.0441 81.7283C53.1029 82.2292 52.0804 82.4922 51.0447 82.4998C50.009 82.5074 48.9838 82.2595 48.0371 81.7724C47.0905 81.2853 46.2441 80.5703 45.5541 79.6748L25.45 57.1132C19.975 50.7662 14.5 43.5729 14.5 33.8408Z" fill="url(#paint0_radial_22_225)"/>
<path d="M18.953 48.6505H41.8749L43.6999 44.4192L50.9999 63.4603L58.2999 33.8408L63.7748 48.6505H83.0103" fill="url(#paint1_radial_22_225)"/>
<path d="M18.953 48.6505H41.8749L43.6999 44.4192L50.9999 63.4603L58.2999 33.8408L63.7748 48.6505H83.0103M14.5 33.8408C14.5001 29.1321 15.7322 24.5343 18.0337 20.6545C20.3351 16.7747 23.5977 13.7954 27.3903 12.1103C31.183 10.4251 35.3274 10.1132 39.2762 11.2159C43.2249 12.3186 46.7923 14.784 49.507 18.2863C49.6982 18.5234 49.9294 18.7123 50.1862 18.8415C50.443 18.9707 50.72 19.0373 50.9999 19.0373C51.2798 19.0373 51.5568 18.9707 51.8136 18.8415C52.0703 18.7123 52.3015 18.5234 52.4927 18.2863C55.199 14.7612 58.7671 12.2751 62.7223 11.1591C66.6775 10.043 70.8321 10.3498 74.6331 12.0387C78.4341 13.7276 81.7013 16.7184 83.9998 20.6132C86.2984 24.5079 87.5192 29.1218 87.4998 33.8408C87.4998 43.5306 82.0248 50.7662 76.5498 57.1132L56.5041 79.5944C55.824 80.4999 54.9854 81.2273 54.0441 81.7283C53.1029 82.2292 52.0804 82.4922 51.0447 82.4998C50.009 82.5074 48.9838 82.2595 48.0371 81.7724C47.0905 81.2853 46.2441 80.5703 45.5541 79.6748L25.45 57.1132C19.975 50.7662 14.5 43.5729 14.5 33.8408Z" stroke="white" stroke-width="5" stroke-linecap="round" stroke-linejoin="round"/>
</g>
<defs>
<filter id="filter0_d_22_225" x="0" y="0" width="102" height="101" filterUnits="userSpaceOnUse" color-interpolation-filters="sRGB">
<feFlood flood-opacity="0" result="BackgroundImageFix"/>
<feColorMatrix in="SourceAlpha" type="matrix" values="0 0 0 0 0 0 0 0 0 0 0 0 0 0 0 0 0 0 127 0" result="hardAlpha"/>
<feOffset dy="4"/>
<feGaussianBlur stdDeviation="6"/>
<feComposite in2="hardAlpha" operator="out"/>
<feColorMatrix type="matrix" values="0 0 0 0 0.368627 0 0 0 0 0.505882 0 0 0 0 0.788235 0 0 0 0.25 0"/>
<feBlend mode="soft-light" in2="BackgroundImageFix" result="effect1_dropShadow_22_225"/>
<feBlend mode="normal" in="SourceGraphic" in2="effect1_dropShadow_22_225" result="shape"/>
</filter>
<radialGradient id="paint0_radial_22_225" cx="0" cy="0" r="1" gradientUnits="userSpaceOnUse" gradientTransform="translate(51 46.5) rotate(90) scale(36 36.5)">
<stop stop-color="#8AAAE5"/>
<stop offset="1" stop-color="#5E81C9"/>
</radialGradient>
<radialGradient id="paint1_radial_22_225" cx="0" cy="0" r="1" gradientUnits="userSpaceOnUse" gradientTransform="translate(51 46.5) rotate(90) scale(36 36.5)">
<stop stop-color="#8AAAE5"/>
<stop offset="1" stop-color="#5E81C9"/>
</radialGradient>
</defs>
</svg>
